<?xml version="1.0" encoding="UTF-8" standalone="no"?>
<!DOCTYPE svg PUBLIC "-//W3C//DTD SVG 1.1//EN" "http://www.w3.org/Graphics/SVG/1.1/DTD/svg11.dtd">
<svg width="100%" height="100%" viewBox="0 0 800 600" version="1.1" xmlns="http://www.w3.org/2000/svg" xmlns:xlink="http://www.w3.org/1999/xlink" xml:space="preserve" xmlns:serif="http://www.serif.com/" style="fill-rule:evenodd;clip-rule:evenodd;stroke-linejoin:round;stroke-miterlimit:2;">
    <g id="dark" transform="matrix(1.39088,0,0,5.51443,-2.63022,6.22269)">
        <rect x="1.891" y="-1.128" width="575.177" height="816.041" style="fill:rgb(13,17,23);"/>
    </g>
    <g transform="matrix(1,0,0,1,-1.75415e-13,54.3774)">
        <text x="40px" y="329.892px" style="font-family:'FiraCode-Medium', 'Fira Code';font-weight:500;font-size:14px;fill:rgb(4,216,4);">Should work server side without having the mod on the client, but</text>
        <text x="40px" y="343.892px" style="font-family:'FiraCode-Medium', 'Fira Code';font-weight:500;font-size:14px;fill:rgb(4,216,4);">having the mod on client is recommended</text>
        <g transform="matrix(14,0,0,14,220.923,369.892)">
        </g>
        <text x="40px" y="369.892px" style="font-family:'FiraCode-Medium', 'Fira Code';font-weight:500;font-size:14px;fill:rgb(4,216,4);">Works in singleplayer</text>
    </g>
    <g id="Description" transform="matrix(0.984482,0,0,2.924,1.30322,-1006.32)">
        <g transform="matrix(1.01576,0,0,0.341998,-87.1017,359.395)">
            <text x="124.447px" y="189.147px" style="font-family:'FiraCode-Medium', 'Fira Code';font-weight:500;font-size:14px;fill:rgb(25,124,250);">This mod allow you to bypass the default 40 level limit from the anvil in minecraft</text>
            <text x="124.447px" y="205.563px" style="font-family:'FiraCode-Medium', 'Fira Code';font-weight:500;font-size:14px;fill:rgb(25,124,250);">vanilla survival.</text>
            <text x="124.447px" y="232.922px" style="font-family:'FiraCode-Medium', 'Fira Code';font-weight:500;font-size:14px;fill:rgb(25,124,250);">40 is the default level limit, but you can customize your own limit.</text>
            <g transform="matrix(14,0,0,14,606.908,249.338)">
            </g>
            <text x="124.447px" y="249.338px" style="font-family:'FiraCode-Medium', 'Fira Code';font-weight:500;font-size:14px;fill:rgb(25,124,250);">You can also nerf the experience cost using a percentage</text>
        </g>
        <g transform="matrix(1.01576,0,0,0.341998,-51.0118,337.048)">
            <g transform="matrix(30,0,0,30,291.994,203.562)">
            </g>
            <text x="88.917px" y="203.562px" style="font-family:'FiraCode-Medium', 'Fira Code';font-weight:500;font-size:30px;fill:rgb(25,83,250);">Description</text>
        </g>
    </g>
    <g transform="matrix(1,0,0,1,-33.6857,-91.1118)">
        <g id="Title" transform="matrix(36,0,0,36,699.532,154.792)">
        </g>
        <text x="167.84px" y="154.792px" style="font-family:'FiraCode-SemiBold', 'Fira Code';font-weight:600;font-size:36px;fill:rgb(25,83,250);">Bypass Anvil Restriction</text>
    </g>
</svg>
