<?xml version="1.0" encoding="UTF-8" standalone="no"?><!DOCTYPE svg PUBLIC "-//W3C//DTD SVG 1.1//EN" "http://www.w3.org/Graphics/SVG/1.1/DTD/svg11.dtd"><svg width="100%" height="100%" viewBox="0 0 3334 3125" version="1.1" xmlns="http://www.w3.org/2000/svg" xmlns:xlink="http://www.w3.org/1999/xlink" xml:space="preserve" xmlns:serif="http://www.serif.com/" style="fill-rule:evenodd;clip-rule:evenodd;stroke-linejoin:round;stroke-miterlimit:2;"><rect id="dark" x="0" y="0" width="3333.33" height="18750" style="fill:#0d1117;"/><g transform="matrix(4.16667,0,0,4.16667,-20.8333,-768.916)"><text x="40px" y="329.892px" style="font-family:'FiraCode-Medium', 'Fira Code';font-weight:500;font-size:14px;fill:#04d86d;">This mod allow you to bypass the default 40 level limit from the anvil in minecraft</text><text x="40px" y="343.892px" style="font-family:'FiraCode-Medium', 'Fira Code';font-weight:500;font-size:14px;fill:#04d86d;">vanilla survival.</text><text x="40px" y="371.892px" style="font-family:'FiraCode-Medium', 'Fira Code';font-weight:500;font-size:14px;fill:#04d86d;">40 is the default level limit, but you can customize your own limit.</text><g transform="matrix(14,0,0,14,522.462,385.892)"></g><text x="40px" y="385.892px" style="font-family:'FiraCode-Medium', 'Fira Code';font-weight:500;font-size:14px;fill:#04d86d;">You can also nerf the experience cost using a percentage</text></g><g id="Title" transform="matrix(150,0,0,150,2774.36,265.333)"></g><text x="558.974px" y="265.333px" style="font-family:'FiraCode-SemiBold', 'Fira Code';font-weight:600;font-size:150px;fill:#04d86d;">Bypass Anvil Restriction</text><g transform="matrix(4.16667,0,0,4.16667,-20.8333,132.398)"><text x="40px" y="329.892px" style="font-family:'FiraCode-Medium', 'Fira Code';font-weight:500;font-size:14px;fill:#04d86d;">This mod works server side without having the mod on the client. He also works in</text><text x="40px" y="343.892px" style="font-family:'FiraCode-Medium', 'Fira Code';font-weight:500;font-size:14px;fill:#04d86d;">singleplayer.</text><text x="40px" y="369.892px" style="font-family:'FiraCode-Medium', 'Fira Code';font-weight:500;font-size:14px;fill:#04d86d;">The latest version (1.0.7+1.20.1) require</text><g transform="matrix(14,0,0,14,246.769,421.892)"></g><g transform="matrix(14,0,0,14,246.769,421.892)"></g><g transform="matrix(14,0,0,14,255.385,421.892)"><path d="M-0.301,-0.221l0.479,-0.21l-0.479,-0.211l0.038,-0.087l0.565,0.251l0,0.095l-0.565,0.251l-0.038,-0.089Zm0.025,0.25l0.564,-0.248l0.039,0.084l-0.565,0.251l-0.038,-0.087Z" style="fill:#04d86d;fill-rule:nonzero;"/></g><g transform="matrix(14,0,0,14,255.385,421.892)"></g><text x="40px" y="421.892px" style="font-family:'FiraCode-Medium', 'Fira Code';font-weight:500;font-size:14px;fill:#04d86d;">Java:                   <tspan x="264px " y="421.892px "> </tspan>17</text><g transform="matrix(14,0,0,14,246.769,447.892)"></g><g transform="matrix(14,0,0,14,246.769,447.892)"></g><g transform="matrix(14,0,0,14,255.385,447.892)"><path d="M-0.301,-0.221l0.479,-0.21l-0.479,-0.211l0.038,-0.087l0.565,0.251l0,0.095l-0.565,0.251l-0.038,-0.089Zm0.025,0.25l0.564,-0.248l0.039,0.084l-0.565,0.251l-0.038,-0.087Z" style="fill:#04d86d;fill-rule:nonzero;"/></g><g transform="matrix(14,0,0,14,255.385,447.892)"></g><text x="40px" y="447.892px" style="font-family:'FiraCode-Medium', 'Fira Code';font-weight:500;font-size:14px;fill:#04d86d;">Minecraft:              <tspan x="264px " y="447.892px "> </tspan>1.20.1</text><g transform="matrix(14,0,0,14,246.769,473.892)"></g><g transform="matrix(14,0,0,14,246.769,473.892)"></g><g transform="matrix(14,0,0,14,255.385,473.892)"><path d="M-0.301,-0.221l0.479,-0.21l-0.479,-0.211l0.038,-0.087l0.565,0.251l0,0.095l-0.565,0.251l-0.038,-0.089Zm0.025,0.25l0.564,-0.248l0.039,0.084l-0.565,0.251l-0.038,-0.087Z" style="fill:#04d86d;fill-rule:nonzero;"/></g><g transform="matrix(14,0,0,14,255.385,473.892)"></g><text x="40px" y="473.892px" style="font-family:'FiraCode-Medium', 'Fira Code';font-weight:500;font-size:14px;fill:#04d86d;">Fabric Loader:          <tspan x="264px " y="473.892px "> </tspan>0.14.22</text><g transform="matrix(14,0,0,14,126.154,499.892)"><path d="M0.215,-0.525c-0,-0.025 0.009,-0.047 0.027,-0.065c0.017,-0.018 0.039,-0.027 0.065,-0.027c0.026,0 0.048,0.009 0.066,0.027c0.018,0.018 0.026,0.04 0.026,0.065c0,0.025 -0.008,0.047 -0.026,0.065c-0.018,0.019 -0.04,0.028 -0.066,0.028c-0.026,-0 -0.048,-0.009 -0.065,-0.028c-0.018,-0.018 -0.027,-0.04 -0.027,-0.065Zm-0,0.364c-0,-0.025 0.009,-0.046 0.027,-0.064c0.017,-0.018 0.039,-0.027 0.065,-0.027c0.026,-0 0.048,0.009 0.066,0.027c0.018,0.018 0.026,0.039 0.026,0.064c0,0.026 -0.008,0.047 -0.026,0.066c-0.018,0.018 -0.04,0.027 -0.066,0.027c-0.026,-0 -0.048,-0.009 -0.065,-0.027c-0.018,-0.019 -0.027,-0.04 -0.027,-0.066Z" style="fill:#04d86d;fill-rule:nonzero;"/></g><g transform="matrix(14,0,0,14,126.154,499.892)"></g><g transform="matrix(14,0,0,14,246.769,499.892)"></g><g transform="matrix(14,0,0,14,246.769,499.892)"></g><g transform="matrix(14,0,0,14,255.385,499.892)"><path d="M-0.301,-0.221l0.479,-0.21l-0.479,-0.211l0.038,-0.087l0.565,0.251l0,0.095l-0.565,0.251l-0.038,-0.089Zm0.025,0.25l0.564,-0.248l0.039,0.084l-0.565,0.251l-0.038,-0.087Z" style="fill:#04d86d;fill-rule:nonzero;"/></g><g transform="matrix(14,0,0,14,255.385,499.892)"></g><text x="40px" y="499.892px" style="font-family:'FiraCode-Medium', 'Fira Code';font-weight:500;font-size:14px;fill:#04d86d;">Fabric API<tspan x="134.769px " y="499.892px "> </tspan>            <tspan x="264px " y="499.892px "> </tspan>0.87.0+1.20.1</text><g transform="matrix(14,0,0,14,246.769,525.892)"></g><g transform="matrix(14,0,0,14,246.769,525.892)"></g><g transform="matrix(14,0,0,14,255.385,525.892)"><path d="M-0.301,-0.221l0.479,-0.21l-0.479,-0.211l0.038,-0.087l0.565,0.251l0,0.095l-0.565,0.251l-0.038,-0.089Zm0.025,0.25l0.564,-0.248l0.039,0.084l-0.565,0.251l-0.038,-0.087Z" style="fill:#04d86d;fill-rule:nonzero;"/></g><g transform="matrix(14,0,0,14,255.385,525.892)"></g><text x="40px" y="525.892px" style="font-family:'FiraCode-Medium', 'Fira Code';font-weight:500;font-size:14px;fill:#04d86d;">Fabric Language Kotlin: <tspan x="264px " y="525.892px "> </tspan>1.9.6+kotlin.1.8.22</text><text x="40px" y="577.892px" style="font-family:'FiraCode-Medium', 'Fira Code';font-weight:500;font-size:14px;fill:#ff1717;">Be careful, if you update the mod (please read the changelog), it is possible that</text><g transform="matrix(14,0,0,14,341.538,591.892)"><path d="M0.307,-0.774c0.023,0 0.041,0.007 0.055,0.021c0.014,0.014 0.021,0.031 0.021,0.051c-0,0.021 -0.007,0.038 -0.021,0.052c-0.014,0.014 -0.032,0.021 -0.055,0.021c-0.022,0 -0.04,-0.007 -0.054,-0.021c-0.014,-0.014 -0.021,-0.031 -0.021,-0.052c0,-0.02 0.007,-0.037 0.021,-0.051c0.014,-0.014 0.032,-0.021 0.054,-0.021Zm0.08,0.271l0,0.419l0.147,-0l0,0.084l-0.424,0l0,-0.084l0.162,-0l0,-0.334l-0.157,0l0,-0.085l0.272,0Z" style="fill:#ff1717;fill-rule:nonzero;"/></g><g transform="matrix(14,0,0,14,341.538,591.892)"></g><g transform="matrix(14,0,0,14,436.308,591.892)"><path d="M0.307,-0.774c0.023,0 0.041,0.007 0.055,0.021c0.014,0.014 0.021,0.031 0.021,0.051c-0,0.021 -0.007,0.038 -0.021,0.052c-0.014,0.014 -0.032,0.021 -0.055,0.021c-0.022,0 -0.04,-0.007 -0.054,-0.021c-0.014,-0.014 -0.021,-0.031 -0.021,-0.052c0,-0.02 0.007,-0.037 0.021,-0.051c0.014,-0.014 0.032,-0.021 0.054,-0.021Zm0.08,0.271l0,0.419l0.147,-0l0,0.084l-0.424,0l0,-0.084l0.162,-0l0,-0.334l-0.157,0l0,-0.085l0.272,0Z" style="fill:#ff1717;fill-rule:nonzero;"/></g><g transform="matrix(14,0,0,14,436.308,591.892)"></g><text x="40px" y="591.892px" style="font-family:'FiraCode-Medium', 'Fira Code';font-weight:500;font-size:14px;fill:#ff1717;">the name or the content of the conf<tspan x="350.154px " y="591.892px ">g</tspan>uration f<tspan x="444.923px " y="591.892px ">l</tspan>es (json5) has changed, which could</text><text x="40px" y="605.892px" style="font-family:'FiraCode-Medium', 'Fira Code';font-weight:500;font-size:14px;fill:#ff1717;">make the server crash at startup. Always make a backup of the bettersnowgolem folder</text><g transform="matrix(14,0,0,14,186.462,619.892)"></g><text x="40px" y="619.892px" style="font-family:'FiraCode-Medium', 'Fira Code';font-weight:500;font-size:14px;fill:#ff1717;">before updating !</text></g></svg>